<?xml version="1.0" standalone="no"?>
<svg xmlns="http://www.w3.org/2000/svg" xmlns:xlink="http://www.w3.org/1999/xlink" width="260pt" height="670pt" viewBox="0.00 0.00 260.00 670.00">
<g id="graph0" class="graph" transform="translate(22.760901165289553,615.7052189100959) scale(0.8374064875084266)" data-name="G">

<polygon fill="#2e3e56" stroke="transparent" points="-4,4 -4,-666 256,-666 256,4 -4,4" style=""/>
<g id="clust1" class="cluster" data-name="clusterIERC20">

<path fill="#445773" stroke="#445773" d="M23.55,-8C23.55,-8 138.45,-8 138.45,-8 144.45,-8 150.45,-14 150.45,-20 150.45,-20 150.45,-505 150.45,-505 150.45,-511 144.45,-517 138.45,-517 138.45,-517 23.55,-517 23.55,-517 17.55,-517 11.55,-511 11.55,-505 11.55,-505 11.55,-20 11.55,-20 11.55,-14 17.55,-8 23.55,-8" style=""/>
<text text-anchor="middle" x="81" y="-500.4" font-family="Times,serif" font-size="14.00" fill="#f0f0f0" style="">IERC20  (iface)</text>
</g>
<g id="clust2" class="cluster" data-name="cluster_01">

<polygon fill="#2e3e56" stroke="black" points="8,-525 8,-654 244,-654 244,-525 8,-525" style=""/>
<text text-anchor="middle" x="126" y="-637.4" font-family="Times,serif" font-size="14.00" style="">Legend</text>
</g>
<!-- IERC20.name -->
<g id="node1" class="node" pointer-events="visible" data-name="IERC20.name">

<ellipse fill="#ffbdb9" stroke="#ffbdb9" stroke-width="3" cx="81" cy="-466" rx="31.9" ry="18" style=""/>
<text text-anchor="middle" x="81" y="-461.8" font-family="Times,serif" font-size="14.00" style="">name</text>
</g>
<!-- IERC20.symbol -->
<g id="node2" class="node" pointer-events="visible" data-name="IERC20.symbol">

<ellipse fill="#ffbdb9" stroke="#ffbdb9" stroke-width="3" cx="81" cy="-412" rx="39.45" ry="18" style=""/>
<text text-anchor="middle" x="81" y="-407.8" font-family="Times,serif" font-size="14.00" style="">symbol</text>
</g>
<!-- IERC20.decimals -->
<g id="node3" class="node" pointer-events="visible" data-name="IERC20.decimals">

<ellipse fill="#ffbdb9" stroke="#ffbdb9" stroke-width="3" cx="81" cy="-358" rx="45.22" ry="18" style=""/>
<text text-anchor="middle" x="81" y="-353.8" font-family="Times,serif" font-size="14.00" style="">decimals</text>
</g>
<!-- IERC20.totalSupply -->
<g id="node4" class="node" pointer-events="visible" data-name="IERC20.totalSupply">

<ellipse fill="#ffbdb9" stroke="#ffbdb9" stroke-width="3" cx="81" cy="-304" rx="55.64" ry="18" style=""/>
<text text-anchor="middle" x="81" y="-299.8" font-family="Times,serif" font-size="14.00" style="">totalSupply</text>
</g>
<!-- IERC20.balanceOf -->
<g id="node5" class="node" pointer-events="visible" data-name="IERC20.balanceOf">

<ellipse fill="#ffbdb9" stroke="#ffbdb9" stroke-width="3" cx="81" cy="-250" rx="50.92" ry="18" style=""/>
<text text-anchor="middle" x="81" y="-245.8" font-family="Times,serif" font-size="14.00" style="">balanceOf</text>
</g>
<!-- IERC20.allowance -->
<g id="node6" class="node" pointer-events="visible" data-name="IERC20.allowance">

<ellipse fill="#ffbdb9" stroke="#ffbdb9" stroke-width="3" cx="81" cy="-196" rx="50.36" ry="18" style=""/>
<text text-anchor="middle" x="81" y="-191.8" font-family="Times,serif" font-size="14.00" style="">allowance</text>
</g>
<!-- IERC20.approve -->
<g id="node7" class="node" pointer-events="visible" data-name="IERC20.approve">

<ellipse fill="#ffbdb9" stroke="#ffbdb9" stroke-width="3" cx="81" cy="-142" rx="42.28" ry="18" style=""/>
<text text-anchor="middle" x="81" y="-137.8" font-family="Times,serif" font-size="14.00" style="">approve</text>
</g>
<!-- IERC20.transfer -->
<g id="node8" class="node" pointer-events="visible" data-name="IERC20.transfer">

<ellipse fill="#ffbdb9" stroke="#ffbdb9" stroke-width="3" cx="81" cy="-88" rx="40.54" ry="18" style=""/>
<text text-anchor="middle" x="81" y="-83.8" font-family="Times,serif" font-size="14.00" style="">transfer</text>
</g>
<!-- IERC20.transferFrom -->
<g id="node9" class="node" pointer-events="visible" data-name="IERC20.transferFrom">

<ellipse fill="#ffbdb9" stroke="#ffbdb9" stroke-width="3" cx="81" cy="-34" rx="61.39" ry="18" style=""/>
<text text-anchor="middle" x="81" y="-29.8" font-family="Times,serif" font-size="14.00" style="">transferFrom</text>
</g>
<!-- key -->
<g id="node10" class="node" pointer-events="visible" data-name="key">

<polygon fill="#edad56" stroke="transparent" stroke-width="3" points="146,-621 16,-621 16,-533 146,-533 146,-621" style=""/>
<text text-anchor="start" x="65.64" y="-602.4" font-family="Times,serif" font-size="14.00" style="">Internal Call</text>
<text text-anchor="start" x="61.74" y="-582.4" font-family="Times,serif" font-size="14.00" style="">External Call</text>
<text text-anchor="start" x="39.21" y="-562.4" font-family="Times,serif" font-size="14.00" style="">Defined Contract</text>
<text text-anchor="start" x="25.6" y="-542.4" font-family="Times,serif" font-size="14.00" style="">Undefined Contract</text>
</g>
<!-- key2 -->
<g id="node11" class="node" pointer-events="visible" data-name="key2">

<polygon fill="#edad56" stroke="transparent" stroke-width="3" points="236,-621 182,-621 182,-533 236,-533 236,-621" style=""/>
<text text-anchor="start" x="196.76" y="-602.4" font-family="Times,serif" font-size="14.00" style="">   </text>
<text text-anchor="start" x="196.76" y="-582.4" font-family="Times,serif" font-size="14.00" style="">   </text>
<polygon fill="#445773" stroke="transparent" points="195,-557 195,-577 223,-577 223,-557 195,-557" style=""/>
<text text-anchor="start" x="196.76" y="-562.4" font-family="Times,serif" font-size="14.00" style="">   </text>
<polygon fill="none" stroke="#e8726d" points="197,-539 197,-555 221,-555 221,-539 197,-539" style=""/>
</g>
<!-- key&#45;&gt;key2 -->
<g id="edge1" class="edge" data-name="key-&gt;key2">

<path fill="none" stroke="#1bc6a6" stroke-width="2" d="M139,-607C159.62,-607 167.2,-607 183.74,-607" style=""/>
<polygon fill="#1bc6a6" stroke="#1bc6a6" stroke-width="2" points="184,-610.5 194,-607 184,-603.5 184,-610.5" style=""/>
</g>
<!-- key&#45;&gt;key2 -->
<g id="edge2" class="edge" data-name="key-&gt;key2">

<path fill="none" stroke="white" stroke-width="2" d="M139,-587C159.62,-587 167.2,-587 183.74,-587" style=""/>
<polygon fill="white" stroke="white" stroke-width="2" points="184,-590.5 194,-587 184,-583.5 184,-590.5" style=""/>
</g>
</g>
</svg>