<?xml version="1.0" standalone="no"?>
<svg xmlns="http://www.w3.org/2000/svg" xmlns:xlink="http://www.w3.org/1999/xlink" width="260pt" height="292pt" viewBox="0.00 0.00 260.00 292.00">
<g id="graph0" class="graph" transform="translate(4,288) scale(1)" data-name="G">

<polygon fill="#2e3e56" stroke="transparent" points="-4,4 -4,-288 256,-288 256,4 -4,4" style=""/>
<g id="clust1" class="cluster" data-name="clusterMath">

<path fill="#445773" stroke="#445773" d="M55,-8C55,-8 107,-8 107,-8 113,-8 119,-14 119,-20 119,-20 119,-127 119,-127 119,-133 113,-139 107,-139 107,-139 55,-139 55,-139 49,-139 43,-133 43,-127 43,-127 43,-20 43,-20 43,-14 49,-8 55,-8" style=""/>
<text text-anchor="middle" x="81" y="-122.4" font-family="Times,serif" font-size="14.00" fill="#f0f0f0" style="">Math  (lib)</text>
</g>
<g id="clust2" class="cluster" data-name="cluster_01">

<polygon fill="#2e3e56" stroke="black" points="8,-147 8,-276 244,-276 244,-147 8,-147" style=""/>
<text text-anchor="middle" x="126" y="-259.4" font-family="Times,serif" font-size="14.00" style="">Legend</text>
</g>
<!-- Math.min -->
<g id="node1" class="node" pointer-events="visible" data-name="Math.min">

<ellipse fill="#f2c383" stroke="#f2c383" stroke-width="3" cx="81" cy="-88" rx="27" ry="18" style=""/>
<text text-anchor="middle" x="81" y="-83.8" font-family="Times,serif" font-size="14.00" style="">min</text>
</g>
<!-- Math.sqrt -->
<g id="node2" class="node" pointer-events="visible" data-name="Math.sqrt">

<ellipse fill="#f2c383" stroke="#f2c383" stroke-width="3" cx="81" cy="-34" rx="27" ry="18" style=""/>
<text text-anchor="middle" x="81" y="-29.8" font-family="Times,serif" font-size="14.00" style="">sqrt</text>
</g>
<!-- key -->
<g id="node3" class="node" pointer-events="visible" data-name="key">

<polygon fill="#edad56" stroke="transparent" stroke-width="3" points="146,-243 16,-243 16,-155 146,-155 146,-243" style=""/>
<text text-anchor="start" x="65.64" y="-224.4" font-family="Times,serif" font-size="14.00" style="">Internal Call</text>
<text text-anchor="start" x="61.74" y="-204.4" font-family="Times,serif" font-size="14.00" style="">External Call</text>
<text text-anchor="start" x="39.21" y="-184.4" font-family="Times,serif" font-size="14.00" style="">Defined Contract</text>
<text text-anchor="start" x="25.6" y="-164.4" font-family="Times,serif" font-size="14.00" style="">Undefined Contract</text>
</g>
<!-- key2 -->
<g id="node4" class="node" pointer-events="visible" data-name="key2">

<polygon fill="#edad56" stroke="transparent" stroke-width="3" points="236,-243 182,-243 182,-155 236,-155 236,-243" style=""/>
<text text-anchor="start" x="196.76" y="-224.4" font-family="Times,serif" font-size="14.00" style="">   </text>
<text text-anchor="start" x="196.76" y="-204.4" font-family="Times,serif" font-size="14.00" style="">   </text>
<polygon fill="#445773" stroke="transparent" points="195,-179 195,-199 223,-199 223,-179 195,-179" style=""/>
<text text-anchor="start" x="196.76" y="-184.4" font-family="Times,serif" font-size="14.00" style="">   </text>
<polygon fill="none" stroke="#e8726d" points="197,-161 197,-177 221,-177 221,-161 197,-161" style=""/>
</g>
<!-- key&#45;&gt;key2 -->
<g id="edge1" class="edge" data-name="key-&gt;key2">

<path fill="none" stroke="#1bc6a6" stroke-width="2" d="M139,-229C159.62,-229 167.2,-229 183.74,-229" style=""/>
<polygon fill="#1bc6a6" stroke="#1bc6a6" stroke-width="2" points="184,-232.5 194,-229 184,-225.5 184,-232.5" style=""/>
</g>
<!-- key&#45;&gt;key2 -->
<g id="edge2" class="edge" data-name="key-&gt;key2">

<path fill="none" stroke="white" stroke-width="2" d="M139,-209C159.62,-209 167.2,-209 183.74,-209" style=""/>
<polygon fill="white" stroke="white" stroke-width="2" points="184,-212.5 194,-209 184,-205.5 184,-212.5" style=""/>
</g>
</g>
</svg>