<?xml version="1.0" standalone="no"?>
<svg xmlns="http://www.w3.org/2000/svg" xmlns:xlink="http://www.w3.org/1999/xlink" width="305pt" height="701pt" viewBox="0.00 0.00 304.98 701.00">
<g id="graph0" class="graph" transform="translate(28.36803318497698,646.9183342748581) scale(0.8467453123625273)" data-name="G">

<polygon fill="#2e3e56" stroke="transparent" points="-4,4 -4,-697 300.98,-697 300.98,4 -4,4" style=""/>
<g id="clust1" class="cluster" data-name="clusterUniswapV2ERC20">

<path fill="#445773" stroke="#445773" d="M20,-147C20,-147 276.98,-147 276.98,-147 282.98,-147 288.98,-153 288.98,-159 288.98,-159 288.98,-536 288.98,-536 288.98,-542 282.98,-548 276.98,-548 276.98,-548 20,-548 20,-548 14,-548 8,-542 8,-536 8,-536 8,-159 8,-159 8,-153 14,-147 20,-147" style=""/>
<text text-anchor="middle" x="148.49" y="-531.4" font-family="Times,serif" font-size="14.00" fill="#f0f0f0" style="">UniswapV2ERC20</text>
</g>
<g id="clust2" class="cluster" data-name="clustertotalSupply">

<path fill="#3b4b63" stroke="#e8726d" stroke-dasharray="5,2" d="M206.01,-8C206.01,-8 262.01,-8 262.01,-8 268.01,-8 274.01,-14 274.01,-20 274.01,-20 274.01,-127 274.01,-127 274.01,-133 268.01,-139 262.01,-139 262.01,-139 206.01,-139 206.01,-139 200.01,-139 194.01,-133 194.01,-127 194.01,-127 194.01,-20 194.01,-20 194.01,-14 200.01,-8 206.01,-8" style=""/>
<text text-anchor="middle" x="234.01" y="-122.4" font-family="Times,serif" font-size="14.00" fill="#f0f0f0" style="">totalSupply</text>
</g>
<g id="clust3" class="cluster" data-name="cluster_01">

<polygon fill="#2e3e56" stroke="black" points="10.52,-556 10.52,-685 269.01,-685 269.01,-556 10.52,-556" style=""/>
<text text-anchor="middle" x="139.76" y="-668.4" font-family="Times,serif" font-size="14.00" style="">Legend</text>
</g>
<!-- UniswapV2ERC20.&lt;Constructor&gt; -->
<g id="node1" class="node" pointer-events="visible" data-name="UniswapV2ERC20.&lt;Constructor&gt;">

<ellipse fill="#ff9797" stroke="#ff9797" stroke-width="3" cx="83.52" cy="-497" rx="67.54" ry="18" style=""/>
<text text-anchor="middle" x="83.52" y="-492.8" font-family="Times,serif" font-size="14.00" style="">&lt;Constructor&gt;</text>
</g>
<!-- UniswapV2ERC20._mint -->
<g id="node2" class="node" pointer-events="visible" data-name="UniswapV2ERC20._mint">

<ellipse fill="#f2c383" stroke="#f2c383" stroke-width="3" cx="83.52" cy="-227" rx="33.65" ry="18" style=""/>
<text text-anchor="middle" x="83.52" y="-222.8" font-family="Times,serif" font-size="14.00" style="">_mint</text>
</g>
<!-- totalSupply.add -->
<g id="node10" class="node" pointer-events="visible" data-name="totalSupply.add">

<ellipse fill="#edad56" stroke="#edad56" stroke-width="3" cx="234.01" cy="-88" rx="27" ry="18" style=""/>
<text text-anchor="middle" x="234.01" y="-83.8" font-family="Times,serif" font-size="14.00" style="">add</text>
</g>
<!-- UniswapV2ERC20._mint&#45;&gt;totalSupply.add -->
<g id="edge1" class="edge" data-name="UniswapV2ERC20._mint-&gt;totalSupply.add">

<path fill="none" stroke="white" stroke-width="2" d="M114.15,-219.37C126.51,-215.13 140.43,-208.88 151.04,-200 174.03,-180.78 169.4,-167.22 187.04,-143 194.94,-132.16 204.34,-120.69 212.58,-111.05" style=""/>
<polygon fill="white" stroke="white" stroke-width="2" points="215.27,-113.29 219.16,-103.44 209.97,-108.71 215.27,-113.29" style=""/>
</g>
<!-- UniswapV2ERC20._burn -->
<g id="node3" class="node" pointer-events="visible" data-name="UniswapV2ERC20._burn">

<ellipse fill="#f2c383" stroke="#f2c383" stroke-width="3" cx="83.52" cy="-173" rx="33.63" ry="18" style=""/>
<text text-anchor="middle" x="83.52" y="-168.8" font-family="Times,serif" font-size="14.00" style="">_burn</text>
</g>
<!-- totalSupply.sub -->
<g id="node11" class="node" pointer-events="visible" data-name="totalSupply.sub">

<ellipse fill="#edad56" stroke="#edad56" stroke-width="3" cx="234.01" cy="-34" rx="27" ry="18" style=""/>
<text text-anchor="middle" x="234.01" y="-29.8" font-family="Times,serif" font-size="14.00" style="">sub</text>
</g>
<!-- UniswapV2ERC20._burn&#45;&gt;totalSupply.sub -->
<g id="edge2" class="edge" data-name="UniswapV2ERC20._burn-&gt;totalSupply.sub">

<path fill="none" stroke="white" stroke-width="2" d="M97.12,-156.36C115.25,-133.13 150.57,-90.52 187.04,-61 192.05,-56.95 197.73,-53.11 203.34,-49.66" style=""/>
<polygon fill="white" stroke="white" stroke-width="2" points="205.15,-52.66 212.01,-44.59 201.61,-46.62 205.15,-52.66" style=""/>
</g>
<!-- UniswapV2ERC20._approve -->
<g id="node4" class="node" pointer-events="visible" data-name="UniswapV2ERC20._approve">

<ellipse fill="#edad56" stroke="#edad56" stroke-width="3" cx="234.01" cy="-308" rx="46.93" ry="18" style=""/>
<text text-anchor="middle" x="234.01" y="-303.8" font-family="Times,serif" font-size="14.00" style="">_approve</text>
</g>
<!-- UniswapV2ERC20._transfer -->
<g id="node5" class="node" pointer-events="visible" data-name="UniswapV2ERC20._transfer">

<ellipse fill="#edad56" stroke="#edad56" stroke-width="3" cx="234.01" cy="-416" rx="45.2" ry="18" style=""/>
<text text-anchor="middle" x="234.01" y="-411.8" font-family="Times,serif" font-size="14.00" style="">_transfer</text>
</g>
<!-- UniswapV2ERC20.approve -->
<g id="node6" class="node" pointer-events="visible" data-name="UniswapV2ERC20.approve">

<ellipse fill="#ffbdb9" stroke="#ffbdb9" stroke-width="3" cx="83.52" cy="-335" rx="42.28" ry="18" style=""/>
<text text-anchor="middle" x="83.52" y="-330.8" font-family="Times,serif" font-size="14.00" style="">approve</text>
</g>
<!-- UniswapV2ERC20.approve&#45;&gt;UniswapV2ERC20._approve -->
<g id="edge3" class="edge" data-name="UniswapV2ERC20.approve-&gt;UniswapV2ERC20._approve">

<path fill="none" stroke="#1bc6a6" stroke-width="2" d="M122.76,-328.05C140.61,-324.8 162.13,-320.89 181.4,-317.38" style=""/>
<polygon fill="#1bc6a6" stroke="#1bc6a6" stroke-width="2" points="182.03,-320.83 191.25,-315.59 180.78,-313.94 182.03,-320.83" style=""/>
</g>
<!-- UniswapV2ERC20.transfer -->
<g id="node7" class="node" pointer-events="visible" data-name="UniswapV2ERC20.transfer">

<ellipse fill="#ffbdb9" stroke="#ffbdb9" stroke-width="3" cx="83.52" cy="-443" rx="40.54" ry="18" style=""/>
<text text-anchor="middle" x="83.52" y="-438.8" font-family="Times,serif" font-size="14.00" style="">transfer</text>
</g>
<!-- UniswapV2ERC20.transfer&#45;&gt;UniswapV2ERC20._transfer -->
<g id="edge4" class="edge" data-name="UniswapV2ERC20.transfer-&gt;UniswapV2ERC20._transfer">

<path fill="none" stroke="#1bc6a6" stroke-width="2" d="M121.23,-436.33C139.74,-432.96 162.48,-428.82 182.61,-425.16" style=""/>
<polygon fill="#1bc6a6" stroke="#1bc6a6" stroke-width="2" points="183.34,-428.59 192.55,-423.36 182.09,-421.7 183.34,-428.59" style=""/>
</g>
<!-- UniswapV2ERC20.transferFrom -->
<g id="node8" class="node" pointer-events="visible" data-name="UniswapV2ERC20.transferFrom">

<ellipse fill="#ffbdb9" stroke="#ffbdb9" stroke-width="3" cx="83.52" cy="-389" rx="61.39" ry="18" style=""/>
<text text-anchor="middle" x="83.52" y="-384.8" font-family="Times,serif" font-size="14.00" style="">transferFrom</text>
</g>
<!-- UniswapV2ERC20.transferFrom&#45;&gt;UniswapV2ERC20._transfer -->
<g id="edge5" class="edge" data-name="UniswapV2ERC20.transferFrom-&gt;UniswapV2ERC20._transfer">

<path fill="none" stroke="#1bc6a6" stroke-width="2" d="M136.04,-398.37C151.01,-401.09 167.35,-404.06 182.27,-406.77" style=""/>
<polygon fill="#1bc6a6" stroke="#1bc6a6" stroke-width="2" points="181.88,-410.26 192.35,-408.61 183.13,-403.37 181.88,-410.26" style=""/>
</g>
<!-- UniswapV2ERC20.permit -->
<g id="node9" class="node" pointer-events="visible" data-name="UniswapV2ERC20.permit">

<ellipse fill="#ffbdb9" stroke="#ffbdb9" stroke-width="3" cx="83.52" cy="-281" rx="36.49" ry="18" style=""/>
<text text-anchor="middle" x="83.52" y="-276.8" font-family="Times,serif" font-size="14.00" style="">permit</text>
</g>
<!-- UniswapV2ERC20.permit&#45;&gt;UniswapV2ERC20._approve -->
<g id="edge6" class="edge" data-name="UniswapV2ERC20.permit-&gt;UniswapV2ERC20._approve">

<path fill="none" stroke="#1bc6a6" stroke-width="2" d="M117.84,-287.06C136.51,-290.45 160.19,-294.76 181.22,-298.58" style=""/>
<polygon fill="#1bc6a6" stroke="#1bc6a6" stroke-width="2" points="180.83,-302.07 191.3,-300.42 182.08,-295.18 180.83,-302.07" style=""/>
</g>
<!-- key -->
<g id="node12" class="node" pointer-events="visible" data-name="key">

<polygon fill="#edad56" stroke="transparent" stroke-width="3" points="148.52,-652 18.52,-652 18.52,-564 148.52,-564 148.52,-652" style=""/>
<text text-anchor="start" x="68.16" y="-633.4" font-family="Times,serif" font-size="14.00" style="">Internal Call</text>
<text text-anchor="start" x="64.26" y="-613.4" font-family="Times,serif" font-size="14.00" style="">External Call</text>
<text text-anchor="start" x="41.73" y="-593.4" font-family="Times,serif" font-size="14.00" style="">Defined Contract</text>
<text text-anchor="start" x="28.12" y="-573.4" font-family="Times,serif" font-size="14.00" style="">Undefined Contract</text>
</g>
<!-- key2 -->
<g id="node13" class="node" pointer-events="visible" data-name="key2">

<polygon fill="#edad56" stroke="transparent" stroke-width="3" points="261.01,-652 207.01,-652 207.01,-564 261.01,-564 261.01,-652" style=""/>
<text text-anchor="start" x="221.77" y="-633.4" font-family="Times,serif" font-size="14.00" style="">   </text>
<text text-anchor="start" x="221.77" y="-613.4" font-family="Times,serif" font-size="14.00" style="">   </text>
<polygon fill="#445773" stroke="transparent" points="220.01,-588 220.01,-608 248.01,-608 248.01,-588 220.01,-588" style=""/>
<text text-anchor="start" x="221.77" y="-593.4" font-family="Times,serif" font-size="14.00" style="">   </text>
<polygon fill="none" stroke="#e8726d" points="222.01,-570 222.01,-586 246.01,-586 246.01,-570 222.01,-570" style=""/>
</g>
<!-- key&#45;&gt;key2 -->
<g id="edge7" class="edge" data-name="key-&gt;key2">

<path fill="none" stroke="#1bc6a6" stroke-width="2" d="M141.52,-638C172.33,-638 182.47,-638 208.91,-638" style=""/>
<polygon fill="#1bc6a6" stroke="#1bc6a6" stroke-width="2" points="209.01,-641.5 219.01,-638 209.01,-634.5 209.01,-641.5" style=""/>
</g>
<!-- key&#45;&gt;key2 -->
<g id="edge8" class="edge" data-name="key-&gt;key2">

<path fill="none" stroke="white" stroke-width="2" d="M141.52,-618C172.33,-618 182.47,-618 208.91,-618" style=""/>
<polygon fill="white" stroke="white" stroke-width="2" points="209.01,-621.5 219.01,-618 209.01,-614.5 209.01,-621.5" style=""/>
</g>
</g>
</svg>