<?xml version="1.0" standalone="no"?>
<svg xmlns="http://www.w3.org/2000/svg" xmlns:xlink="http://www.w3.org/1999/xlink" width="597pt" height="1480pt" viewBox="0.00 0.00 596.88 1480.00">
<g id="graph0" class="graph" transform="translate(1.8004286203132551,1359.707202319701) scale(0.8950250709279727)" data-name="G">

<polygon fill="#2e3e56" stroke="transparent" points="-4,4 -4,-1476 592.88,-1476 592.88,4 -4,4" style=""/>
<g id="clust1" class="cluster" data-name="clusterUniswapV2Pair">

<path fill="#445773" stroke="#445773" d="M20,-864C20,-864 568.88,-864 568.88,-864 574.88,-864 580.88,-870 580.88,-876 580.88,-876 580.88,-1315 580.88,-1315 580.88,-1321 574.88,-1327 568.88,-1327 568.88,-1327 20,-1327 20,-1327 14,-1327 8,-1321 8,-1315 8,-1315 8,-876 8,-876 8,-870 14,-864 20,-864" style=""/>
<text text-anchor="middle" x="294.44" y="-1310.4" font-family="Times,serif" font-size="14.00" fill="#f0f0f0" style="">UniswapV2Pair</text>
</g>
<g id="clust2" class="cluster" data-name="clustertoken">

<path fill="#3b4b63" stroke="#e8726d" stroke-dasharray="5,2" d="M460,-779C460,-779 506,-779 506,-779 512,-779 518,-785 518,-791 518,-791 518,-844 518,-844 518,-850 512,-856 506,-856 506,-856 460,-856 460,-856 454,-856 448,-850 448,-844 448,-844 448,-791 448,-791 448,-785 454,-779 460,-779" style=""/>
<text text-anchor="middle" x="483" y="-839.4" font-family="Times,serif" font-size="14.00" fill="#f0f0f0" style="">token</text>
</g>
<g id="clust3" class="cluster" data-name="clusterMath">

<path fill="#3b4b63" stroke="#e8726d" stroke-dasharray="5,2" d="M460,-416C460,-416 506,-416 506,-416 512,-416 518,-422 518,-428 518,-428 518,-535 518,-535 518,-541 512,-547 506,-547 506,-547 460,-547 460,-547 454,-547 448,-541 448,-535 448,-535 448,-428 448,-428 448,-422 454,-416 460,-416" style=""/>
<text text-anchor="middle" x="483" y="-530.4" font-family="Times,serif" font-size="14.00" fill="#f0f0f0" style="">Math</text>
</g>
<g id="clust4" class="cluster" data-name="clustertotalSupply">

<path fill="#3b4b63" stroke="#e8726d" stroke-dasharray="5,2" d="M455,-694C455,-694 511,-694 511,-694 517,-694 523,-700 523,-706 523,-706 523,-759 523,-759 523,-765 517,-771 511,-771 511,-771 455,-771 455,-771 449,-771 443,-765 443,-759 443,-759 443,-706 443,-706 443,-700 449,-694 455,-694" style=""/>
<text text-anchor="middle" x="483" y="-754.4" font-family="Times,serif" font-size="14.00" fill="#f0f0f0" style="">totalSupply</text>
</g>
<g id="clust5" class="cluster" data-name="clusterrootK">

<path fill="#3b4b63" stroke="#e8726d" stroke-dasharray="5,2" d="M460,-555C460,-555 506,-555 506,-555 512,-555 518,-561 518,-567 518,-567 518,-674 518,-674 518,-680 512,-686 506,-686 506,-686 460,-686 460,-686 454,-686 448,-680 448,-674 448,-674 448,-567 448,-567 448,-561 454,-555 460,-555" style=""/>
<text text-anchor="middle" x="483" y="-669.4" font-family="Times,serif" font-size="14.00" fill="#f0f0f0" style="">rootK</text>
</g>
<g id="clust6" class="cluster" data-name="clusterbalance0">

<path fill="#3b4b63" stroke="#e8726d" stroke-dasharray="5,2" d="M249.09,-657C249.09,-657 295.09,-657 295.09,-657 301.09,-657 307.09,-663 307.09,-669 307.09,-669 307.09,-776 307.09,-776 307.09,-782 301.09,-788 295.09,-788 295.09,-788 249.09,-788 249.09,-788 243.09,-788 237.09,-782 237.09,-776 237.09,-776 237.09,-669 237.09,-669 237.09,-663 243.09,-657 249.09,-657" style=""/>
<text text-anchor="middle" x="272.09" y="-771.4" font-family="Times,serif" font-size="14.00" fill="#f0f0f0" style="">balance0</text>
</g>
<g id="clust7" class="cluster" data-name="clusterbalance1">

<path fill="#3b4b63" stroke="#e8726d" stroke-dasharray="5,2" d="M249.09,-518C249.09,-518 295.09,-518 295.09,-518 301.09,-518 307.09,-524 307.09,-530 307.09,-530 307.09,-637 307.09,-637 307.09,-643 301.09,-649 295.09,-649 295.09,-649 249.09,-649 249.09,-649 243.09,-649 237.09,-643 237.09,-637 237.09,-637 237.09,-530 237.09,-530 237.09,-524 243.09,-518 249.09,-518" style=""/>
<text text-anchor="middle" x="272.09" y="-632.4" font-family="Times,serif" font-size="14.00" fill="#f0f0f0" style="">balance1</text>
</g>
<g id="clust8" class="cluster" data-name="clusteramount0">

<path fill="#3b4b63" stroke="#e8726d" stroke-dasharray="5,2" d="M249.09,-433C249.09,-433 295.09,-433 295.09,-433 301.09,-433 307.09,-439 307.09,-445 307.09,-445 307.09,-498 307.09,-498 307.09,-504 301.09,-510 295.09,-510 295.09,-510 249.09,-510 249.09,-510 243.09,-510 237.09,-504 237.09,-498 237.09,-498 237.09,-445 237.09,-445 237.09,-439 243.09,-433 249.09,-433" style=""/>
<text text-anchor="middle" x="272.09" y="-493.4" font-family="Times,serif" font-size="14.00" fill="#f0f0f0" style="">amount0</text>
</g>
<g id="clust9" class="cluster" data-name="clusteramount1">

<path fill="#3b4b63" stroke="#e8726d" stroke-dasharray="5,2" d="M249.09,-348C249.09,-348 295.09,-348 295.09,-348 301.09,-348 307.09,-354 307.09,-360 307.09,-360 307.09,-413 307.09,-413 307.09,-419 301.09,-425 295.09,-425 295.09,-425 249.09,-425 249.09,-425 243.09,-425 237.09,-419 237.09,-413 237.09,-413 237.09,-360 237.09,-360 237.09,-354 243.09,-348 249.09,-348" style=""/>
<text text-anchor="middle" x="272.09" y="-408.4" font-family="Times,serif" font-size="14.00" fill="#f0f0f0" style="">amount1</text>
</g>
<g id="clust10" class="cluster" data-name="clusterliquidity">

<path fill="#3b4b63" stroke="#e8726d" stroke-dasharray="5,2" d="M249.09,-263C249.09,-263 295.09,-263 295.09,-263 301.09,-263 307.09,-269 307.09,-275 307.09,-275 307.09,-328 307.09,-328 307.09,-334 301.09,-340 295.09,-340 295.09,-340 249.09,-340 249.09,-340 243.09,-340 237.09,-334 237.09,-328 237.09,-328 237.09,-275 237.09,-275 237.09,-269 243.09,-263 249.09,-263" style=""/>
<text text-anchor="middle" x="272.09" y="-323.4" font-family="Times,serif" font-size="14.00" fill="#f0f0f0" style="">liquidity</text>
</g>
<g id="clust11" class="cluster" data-name="clusteramount0In">

<path fill="#3b4b63" stroke="#e8726d" stroke-dasharray="5,2" d="M246.09,-178C246.09,-178 298.09,-178 298.09,-178 304.09,-178 310.09,-184 310.09,-190 310.09,-190 310.09,-243 310.09,-243 310.09,-249 304.09,-255 298.09,-255 298.09,-255 246.09,-255 246.09,-255 240.09,-255 234.09,-249 234.09,-243 234.09,-243 234.09,-190 234.09,-190 234.09,-184 240.09,-178 246.09,-178" style=""/>
<text text-anchor="middle" x="272.09" y="-238.4" font-family="Times,serif" font-size="14.00" fill="#f0f0f0" style="">amount0In</text>
</g>
<g id="clust12" class="cluster" data-name="clusteramount1In">

<path fill="#3b4b63" stroke="#e8726d" stroke-dasharray="5,2" d="M246.09,-93C246.09,-93 298.09,-93 298.09,-93 304.09,-93 310.09,-99 310.09,-105 310.09,-105 310.09,-158 310.09,-158 310.09,-164 304.09,-170 298.09,-170 298.09,-170 246.09,-170 246.09,-170 240.09,-170 234.09,-164 234.09,-158 234.09,-158 234.09,-105 234.09,-105 234.09,-99 240.09,-93 246.09,-93" style=""/>
<text text-anchor="middle" x="272.09" y="-153.4" font-family="Times,serif" font-size="14.00" fill="#f0f0f0" style="">amount1In</text>
</g>
<g id="clust13" class="cluster" data-name="clusterbalance0Adjusted">

<path fill="#3b4b63" stroke="#e8726d" stroke-dasharray="5,2" d="M226.09,-8C226.09,-8 318.09,-8 318.09,-8 324.09,-8 330.09,-14 330.09,-20 330.09,-20 330.09,-73 330.09,-73 330.09,-79 324.09,-85 318.09,-85 318.09,-85 226.09,-85 226.09,-85 220.09,-85 214.09,-79 214.09,-73 214.09,-73 214.09,-20 214.09,-20 214.09,-14 220.09,-8 226.09,-8" style=""/>
<text text-anchor="middle" x="272.09" y="-68.4" font-family="Times,serif" font-size="14.00" fill="#f0f0f0" style="">balance0Adjusted</text>
</g>
<g id="clust14" class="cluster" data-name="cluster_01">

<polygon fill="#2e3e56" stroke="black" points="10.52,-1335 10.52,-1464 307.09,-1464 307.09,-1335 10.52,-1335" style=""/>
<text text-anchor="middle" x="158.8" y="-1447.4" font-family="Times,serif" font-size="14.00" style="">Legend</text>
</g>
<!-- UniswapV2Pair.lock -->
<g id="node1" class="node" pointer-events="visible" data-name="UniswapV2Pair.lock">

<polygon fill="#edad56" stroke="#1bc6a6" stroke-width="3" points="113.41,-1264.54 113.41,-1279.46 95.9,-1290 71.14,-1290 53.63,-1279.46 53.63,-1264.54 71.14,-1254 95.9,-1254 113.41,-1264.54" style=""/>
<polygon fill="none" stroke="#1bc6a6" stroke-width="3" points="117.41,-1262.28 117.41,-1281.72 97.01,-1294 70.03,-1294 49.63,-1281.72 49.63,-1262.28 70.03,-1250 97.01,-1250 117.41,-1262.28" style=""/>
<text text-anchor="middle" x="83.52" y="-1267.8" font-family="Times,serif" font-size="14.00" style="">lock</text>
</g>
<!-- UniswapV2Pair.getReserves -->
<g id="node2" class="node" pointer-events="visible" data-name="UniswapV2Pair.getReserves">

<ellipse fill="#edad56" stroke="#edad56" stroke-width="3" cx="272.09" cy="-1018" rx="57.88" ry="18" style=""/>
<text text-anchor="middle" x="272.09" y="-1013.8" font-family="Times,serif" font-size="14.00" style="">getReserves</text>
</g>
<!-- UniswapV2Pair._safeTransfer -->
<g id="node3" class="node" pointer-events="visible" data-name="UniswapV2Pair._safeTransfer">

<ellipse fill="#edad56" stroke="#edad56" stroke-width="3" cx="272.09" cy="-1180" rx="64.22" ry="18" style=""/>
<text text-anchor="middle" x="272.09" y="-1175.8" font-family="Times,serif" font-size="14.00" style="">_safeTransfer</text>
</g>
<!-- token.call -->
<g id="node18" class="node" pointer-events="visible" data-name="token.call">

<ellipse fill="#edad56" stroke="#edad56" stroke-width="3" cx="483" cy="-805" rx="27" ry="18" style=""/>
<text text-anchor="middle" x="483" y="-800.8" font-family="Times,serif" font-size="14.00" style="">call</text>
</g>
<!-- UniswapV2Pair._safeTransfer&#45;&gt;token.call -->
<g id="edge1" class="edge" data-name="UniswapV2Pair._safeTransfer-&gt;token.call">

<path fill="none" stroke="white" stroke-width="2" d="M329.16,-1171.71C339.83,-1167.68 349.9,-1161.74 357.13,-1153 440.76,-1051.9 322.39,-970.5 393.13,-860 406.16,-839.64 429.69,-825.58 449.27,-816.77" style=""/>
<polygon fill="white" stroke="white" stroke-width="2" points="450.66,-819.99 458.5,-812.87 447.93,-813.54 450.66,-819.99" style=""/>
</g>
<!-- UniswapV2Pair.&lt;Constructor&gt; -->
<g id="node4" class="node" pointer-events="visible" data-name="UniswapV2Pair.&lt;Constructor&gt;">

<ellipse fill="#ff9797" stroke="#ff9797" stroke-width="3" cx="83.52" cy="-1214" rx="67.54" ry="18" style=""/>
<text text-anchor="middle" x="83.52" y="-1209.8" font-family="Times,serif" font-size="14.00" style="">&lt;Constructor&gt;</text>
</g>
<!-- UniswapV2Pair.initialize -->
<g id="node5" class="node" pointer-events="visible" data-name="UniswapV2Pair.initialize">

<ellipse fill="#ffbdb9" stroke="#ffbdb9" stroke-width="3" cx="83.52" cy="-1160" rx="44.65" ry="18" style=""/>
<text text-anchor="middle" x="83.52" y="-1155.8" font-family="Times,serif" font-size="14.00" style="">initialize</text>
</g>
<!-- UniswapV2Pair._update -->
<g id="node6" class="node" pointer-events="visible" data-name="UniswapV2Pair._update">

<ellipse fill="#edad56" stroke="#edad56" stroke-width="3" cx="272.09" cy="-1072" rx="41.72" ry="18" style=""/>
<text text-anchor="middle" x="272.09" y="-1067.8" font-family="Times,serif" font-size="14.00" style="">_update</text>
</g>
<!-- UniswapV2Pair._mintFee -->
<g id="node7" class="node" pointer-events="visible" data-name="UniswapV2Pair._mintFee">

<ellipse fill="#edad56" stroke="#edad56" stroke-width="3" cx="272.09" cy="-890" rx="47.53" ry="18" style=""/>
<text text-anchor="middle" x="272.09" y="-885.8" font-family="Times,serif" font-size="14.00" style="">_mintFee</text>
</g>
<!-- UniswapV2Pair.IUniswapV2Factory -->
<g id="node13" class="node" pointer-events="visible" data-name="UniswapV2Pair.IUniswapV2Factory">

<ellipse fill="#edad56" stroke="#edad56" stroke-width="3" cx="483" cy="-890" rx="89.75" ry="18" style=""/>
<text text-anchor="middle" x="483" y="-885.8" font-family="Times,serif" font-size="14.00" style="">IUniswapV2Factory</text>
</g>
<!-- UniswapV2Pair._mintFee&#45;&gt;UniswapV2Pair.IUniswapV2Factory -->
<g id="edge2" class="edge" data-name="UniswapV2Pair._mintFee-&gt;UniswapV2Pair.IUniswapV2Factory">

<path fill="none" stroke="#1bc6a6" stroke-width="2" d="M319.71,-890C338.48,-890 360.89,-890 382.98,-890" style=""/>
<polygon fill="#1bc6a6" stroke="#1bc6a6" stroke-width="2" points="383.09,-893.5 393.09,-890 383.09,-886.5 383.09,-893.5" style=""/>
</g>
<!-- UniswapV2Pair._mint -->
<g id="node14" class="node" pointer-events="visible" data-name="UniswapV2Pair._mint">

<ellipse fill="#edad56" stroke="#edad56" stroke-width="3" cx="483" cy="-944" rx="33.65" ry="18" style=""/>
<text text-anchor="middle" x="483" y="-939.8" font-family="Times,serif" font-size="14.00" style="">_mint</text>
</g>
<!-- UniswapV2Pair._mintFee&#45;&gt;UniswapV2Pair._mint -->
<g id="edge8" class="edge" data-name="UniswapV2Pair._mintFee-&gt;UniswapV2Pair._mint">

<path fill="none" stroke="#1bc6a6" stroke-width="2" d="M311.89,-900.03C349.11,-909.65 405.01,-924.1 442.47,-933.78" style=""/>
<polygon fill="#1bc6a6" stroke="#1bc6a6" stroke-width="2" points="441.95,-937.26 452.51,-936.38 443.7,-930.49 441.95,-937.26" style=""/>
</g>
<!-- Math.sqrt -->
<g id="node19" class="node" pointer-events="visible" data-name="Math.sqrt">

<ellipse fill="#edad56" stroke="#edad56" stroke-width="3" cx="483" cy="-496" rx="27" ry="18" style=""/>
<text text-anchor="middle" x="483" y="-491.8" font-family="Times,serif" font-size="14.00" style="">sqrt</text>
</g>
<!-- UniswapV2Pair._mintFee&#45;&gt;Math.sqrt -->
<g id="edge3" class="edge" data-name="UniswapV2Pair._mintFee-&gt;Math.sqrt">

<path fill="none" stroke="white" stroke-width="2" d="M307.16,-877.58C324.82,-872.39 345.14,-864.4 357.13,-849 441.56,-740.63 319.38,-657.91 393.13,-542 405.49,-522.58 427.43,-508.9 446.42,-501.13" style=""/>
<polygon fill="white" stroke="white" stroke-width="2" points="447.83,-504.34 456.01,-497.61 445.42,-497.77 447.83,-504.34" style=""/>
</g>
<!-- UniswapV2Pair._mintFee&#45;&gt;Math.sqrt -->
<g id="edge4" class="edge" data-name="UniswapV2Pair._mintFee-&gt;Math.sqrt">

<path fill="none" stroke="white" stroke-width="2" d="M319.74,-890.51C333.8,-886.28 347.92,-878.82 357.13,-867 441.56,-758.63 319.38,-675.91 393.13,-560 407.17,-537.93 433.59,-523.27 453.98,-513.07" style=""/>
<polygon fill="white" stroke="white" stroke-width="2" points="455.73,-516.12 463.15,-508.55 452.63,-509.84 455.73,-516.12" style=""/>
</g>
<!-- totalSupply.mul -->
<g id="node21" class="node" pointer-events="visible" data-name="totalSupply.mul">

<ellipse fill="#edad56" stroke="#edad56" stroke-width="3" cx="483" cy="-720" rx="27" ry="18" style=""/>
<text text-anchor="middle" x="483" y="-715.8" font-family="Times,serif" font-size="14.00" style="">mul</text>
</g>
<!-- UniswapV2Pair._mintFee&#45;&gt;totalSupply.mul -->
<g id="edge5" class="edge" data-name="UniswapV2Pair._mintFee-&gt;totalSupply.mul">

<path fill="none" stroke="white" stroke-width="2" d="M314.37,-881.42C329.32,-876.6 345.39,-869.22 357.13,-858 386.2,-830.22 366.83,-805.42 393.13,-775 408.77,-756.92 431.85,-742.88 450.57,-733.51" style=""/>
<polygon fill="white" stroke="white" stroke-width="2" points="452.12,-736.65 459.63,-729.17 449.1,-730.34 452.12,-736.65" style=""/>
</g>
<!-- rootK.sub -->
<g id="node22" class="node" pointer-events="visible" data-name="rootK.sub">

<ellipse fill="#edad56" stroke="#edad56" stroke-width="3" cx="483" cy="-635" rx="27" ry="18" style=""/>
<text text-anchor="middle" x="483" y="-630.8" font-family="Times,serif" font-size="14.00" style="">sub</text>
</g>
<!-- UniswapV2Pair._mintFee&#45;&gt;rootK.sub -->
<g id="edge6" class="edge" data-name="UniswapV2Pair._mintFee-&gt;rootK.sub">

<path fill="none" stroke="white" stroke-width="2" d="M315.61,-882.59C330.71,-877.92 346.56,-870.32 357.13,-858 406.85,-800.04 349.14,-752.42 393.13,-690 406.9,-670.46 430.03,-656.47 449.25,-647.48" style=""/>
<polygon fill="white" stroke="white" stroke-width="2" points="450.85,-650.6 458.59,-643.36 448.03,-644.2 450.85,-650.6" style=""/>
</g>
<!-- rootK.mul -->
<g id="node23" class="node" pointer-events="visible" data-name="rootK.mul">

<ellipse fill="#edad56" stroke="#edad56" stroke-width="3" cx="483" cy="-581" rx="27" ry="18" style=""/>
<text text-anchor="middle" x="483" y="-576.8" font-family="Times,serif" font-size="14.00" style="">mul</text>
</g>
<!-- UniswapV2Pair._mintFee&#45;&gt;rootK.mul -->
<g id="edge7" class="edge" data-name="UniswapV2Pair._mintFee-&gt;rootK.mul">

<path fill="none" stroke="white" stroke-width="2" d="M316.06,-882.96C331.21,-878.33 346.98,-870.68 357.13,-858 427.28,-770.36 320.01,-693.17 393.13,-608 406.1,-592.89 427.23,-586.08 445.63,-583.07" style=""/>
<polygon fill="white" stroke="white" stroke-width="2" points="446.33,-586.51 455.79,-581.73 445.42,-579.57 446.33,-586.51" style=""/>
</g>
<!-- UniswapV2Pair.mint -->
<g id="node8" class="node" pointer-events="visible" data-name="UniswapV2Pair.mint">

<ellipse fill="#ffbdb9" stroke="#ffbdb9" stroke-width="3" cx="83.52" cy="-890" rx="28.99" ry="18" style=""/>
<text text-anchor="middle" x="83.52" y="-885.8" font-family="Times,serif" font-size="14.00" style="">mint</text>
</g>
<!-- UniswapV2Pair.mint&#45;&gt;UniswapV2Pair.getReserves -->
<g id="edge9" class="edge" data-name="UniswapV2Pair.mint-&gt;UniswapV2Pair.getReserves">

<path fill="none" stroke="#1bc6a6" stroke-width="2" d="M110.99,-895.91C124.31,-900 139.93,-906.62 151.04,-917 177.76,-941.98 159.41,-967.04 187.04,-991 194.26,-997.26 202.95,-1002.07 211.96,-1005.77" style=""/>
<polygon fill="#1bc6a6" stroke="#1bc6a6" stroke-width="2" points="210.83,-1009.08 221.42,-1009.24 213.23,-1002.51 210.83,-1009.08" style=""/>
</g>
<!-- UniswapV2Pair.mint&#45;&gt;UniswapV2Pair._update -->
<g id="edge22" class="edge" data-name="UniswapV2Pair.mint-&gt;UniswapV2Pair._update">

<path fill="none" stroke="#1bc6a6" stroke-width="2" d="M111.45,-895.04C125.07,-898.89 140.82,-905.57 151.04,-917 190.44,-961.05 146.03,-1002.45 187.04,-1045 196.37,-1054.67 209.16,-1060.89 221.95,-1064.88" style=""/>
<polygon fill="#1bc6a6" stroke="#1bc6a6" stroke-width="2" points="221.11,-1068.27 231.67,-1067.51 222.94,-1061.52 221.11,-1068.27" style=""/>
</g>
<!-- UniswapV2Pair.mint&#45;&gt;UniswapV2Pair._mintFee -->
<g id="edge14" class="edge" data-name="UniswapV2Pair.mint-&gt;UniswapV2Pair._mintFee">

<path fill="none" stroke="#1bc6a6" stroke-width="2" d="M112.45,-890C139.26,-890 180.54,-890 214.27,-890" style=""/>
<polygon fill="#1bc6a6" stroke="#1bc6a6" stroke-width="2" points="214.47,-893.5 224.47,-890 214.47,-886.5 214.47,-893.5" style=""/>
</g>
<!-- UniswapV2Pair.mint&#45;&gt;UniswapV2Pair._mint -->
<g id="edge17" class="edge" data-name="UniswapV2Pair.mint-&gt;UniswapV2Pair._mint">

<path fill="none" stroke="#1bc6a6" stroke-width="2" d="M112.53,-891.23C132.98,-895.76 161.48,-903.5 187.04,-908 234.85,-916.42 372.58,-927.11 441.59,-935.75" style=""/>
<polygon fill="#1bc6a6" stroke="#1bc6a6" stroke-width="2" points="441.29,-939.24 451.65,-937.06 442.19,-932.3 441.29,-939.24" style=""/>
</g>
<!-- UniswapV2Pair.mint&#45;&gt;UniswapV2Pair._mint -->
<g id="edge21" class="edge" data-name="UniswapV2Pair.mint-&gt;UniswapV2Pair._mint">

<path fill="none" stroke="#1bc6a6" stroke-width="2" d="M103.96,-902.87C124.42,-911.39 157.68,-920.83 187.04,-926 234.37,-934.34 369.82,-944.89 439.49,-946.48" style=""/>
<polygon fill="#1bc6a6" stroke="#1bc6a6" stroke-width="2" points="439.62,-949.98 449.67,-946.65 439.73,-942.98 439.62,-949.98" style=""/>
</g>
<!-- UniswapV2Pair.IERC20 -->
<g id="node15" class="node" pointer-events="visible" data-name="UniswapV2Pair.IERC20">

<ellipse fill="#edad56" stroke="#edad56" stroke-width="3" cx="272.09" cy="-1126" rx="42.88" ry="18" style=""/>
<text text-anchor="middle" x="272.09" y="-1121.8" font-family="Times,serif" font-size="14.00" style="">IERC20</text>
</g>
<!-- UniswapV2Pair.mint&#45;&gt;UniswapV2Pair.IERC20 -->
<g id="edge10" class="edge" data-name="UniswapV2Pair.mint-&gt;UniswapV2Pair.IERC20">

<path fill="none" stroke="#1bc6a6" stroke-width="2" d="M111.83,-886.72C125.54,-889.48 141.28,-896.18 151.04,-908 203.54,-971.58 132.2,-1028.42 187.04,-1090 197.39,-1101.62 212.76,-1108.27 227.53,-1112.63" style=""/>
<polygon fill="#1bc6a6" stroke="#1bc6a6" stroke-width="2" points="227.03,-1116.12 237.6,-1115.31 228.83,-1109.35 227.03,-1116.12" style=""/>
</g>
<!-- UniswapV2Pair.mint&#45;&gt;UniswapV2Pair.IERC20 -->
<g id="edge11" class="edge" data-name="UniswapV2Pair.mint-&gt;UniswapV2Pair.IERC20">

<path fill="none" stroke="#1bc6a6" stroke-width="2" d="M106.59,-900.95C121.35,-905.83 140.01,-912.64 151.04,-926 203.54,-989.58 132.2,-1046.42 187.04,-1108 195.73,-1117.75 207.94,-1124 220.38,-1127.67" style=""/>
<polygon fill="#1bc6a6" stroke="#1bc6a6" stroke-width="2" points="219.79,-1131.13 230.33,-1130.08 221.44,-1124.33 219.79,-1131.13" style=""/>
</g>
<!-- UniswapV2Pair.mint&#45;&gt;Math.sqrt -->
<g id="edge15" class="edge" data-name="UniswapV2Pair.mint-&gt;Math.sqrt">

<path fill="none" stroke="white" stroke-width="2" d="M110.2,-883.16C130.93,-877.66 160.84,-869.76 187.04,-863 262.54,-843.52 305.24,-878.2 357.13,-820 437.4,-729.96 327.55,-652.24 393.13,-551 406.27,-530.71 429.8,-516.65 449.35,-507.82" style=""/>
<polygon fill="white" stroke="white" stroke-width="2" points="450.73,-511.04 458.56,-503.91 447.99,-504.6 450.73,-511.04" style=""/>
</g>
<!-- Math.min -->
<g id="node20" class="node" pointer-events="visible" data-name="Math.min">

<ellipse fill="#edad56" stroke="#edad56" stroke-width="3" cx="483" cy="-442" rx="27" ry="18" style=""/>
<text text-anchor="middle" x="483" y="-437.8" font-family="Times,serif" font-size="14.00" style="">min</text>
</g>
<!-- UniswapV2Pair.mint&#45;&gt;Math.min -->
<g id="edge18" class="edge" data-name="UniswapV2Pair.mint-&gt;Math.min">

<path fill="none" stroke="white" stroke-width="2" d="M100.96,-875.36C120.18,-859.1 153.63,-833.39 187.04,-820 258.16,-791.5 304.39,-847.57 357.13,-792 456.57,-687.23 300.81,-580.09 393.13,-469 405.91,-453.62 427.17,-446.8 445.69,-443.86" style=""/>
<polygon fill="white" stroke="white" stroke-width="2" points="446.15,-447.33 455.63,-442.6 445.27,-440.39 446.15,-447.33" style=""/>
</g>
<!-- balance0.sub -->
<g id="node24" class="node" pointer-events="visible" data-name="balance0.sub">

<ellipse fill="#edad56" stroke="#edad56" stroke-width="3" cx="272.09" cy="-683" rx="27" ry="18" style=""/>
<text text-anchor="middle" x="272.09" y="-678.8" font-family="Times,serif" font-size="14.00" style="">sub</text>
</g>
<!-- UniswapV2Pair.mint&#45;&gt;balance0.sub -->
<g id="edge12" class="edge" data-name="UniswapV2Pair.mint-&gt;balance0.sub">

<path fill="none" stroke="white" stroke-width="2" d="M89.76,-872.29C101.29,-836.34 132.32,-754.43 187.04,-710 200.71,-698.91 219.02,-692.33 235.07,-688.46" style=""/>
<polygon fill="white" stroke="white" stroke-width="2" points="236.17,-691.8 245.22,-686.28 234.7,-684.95 236.17,-691.8" style=""/>
</g>
<!-- balance1.sub -->
<g id="node26" class="node" pointer-events="visible" data-name="balance1.sub">

<ellipse fill="#edad56" stroke="#edad56" stroke-width="3" cx="272.09" cy="-544" rx="27" ry="18" style=""/>
<text text-anchor="middle" x="272.09" y="-539.8" font-family="Times,serif" font-size="14.00" style="">sub</text>
</g>
<!-- UniswapV2Pair.mint&#45;&gt;balance1.sub -->
<g id="edge13" class="edge" data-name="UniswapV2Pair.mint-&gt;balance1.sub">

<path fill="none" stroke="white" stroke-width="2" d="M84.86,-871.94C86.88,-818.22 100.24,-657.79 187.04,-571 199.79,-558.26 218.56,-551.52 235.13,-547.97" style=""/>
<polygon fill="white" stroke="white" stroke-width="2" points="235.88,-551.39 245.09,-546.14 234.62,-544.5 235.88,-551.39" style=""/>
</g>
<!-- amount0.mul -->
<g id="node28" class="node" pointer-events="visible" data-name="amount0.mul">

<ellipse fill="#edad56" stroke="#edad56" stroke-width="3" cx="272.09" cy="-459" rx="27" ry="18" style=""/>
<text text-anchor="middle" x="272.09" y="-454.8" font-family="Times,serif" font-size="14.00" style="">mul</text>
</g>
<!-- UniswapV2Pair.mint&#45;&gt;amount0.mul -->
<g id="edge16" class="edge" data-name="UniswapV2Pair.mint-&gt;amount0.mul">

<path fill="none" stroke="white" stroke-width="2" d="M84.91,-871.64C87.01,-812.21 100.49,-624.02 187.04,-505 199.5,-487.86 219.07,-474.61 236.18,-466.37" style=""/>
<polygon fill="white" stroke="white" stroke-width="2" points="237.64,-469.55 245.38,-462.31 234.82,-463.14 237.64,-469.55" style=""/>
</g>
<!-- UniswapV2Pair.mint&#45;&gt;amount0.mul -->
<g id="edge19" class="edge" data-name="UniswapV2Pair.mint-&gt;amount0.mul">

<path fill="none" stroke="white" stroke-width="2" d="M85.23,-871.89C88.25,-814.75 104.07,-637.09 187.04,-523 201.61,-502.97 225.87,-488.24 244.6,-477.55" style=""/>
<polygon fill="white" stroke="white" stroke-width="2" points="246.57,-480.46 253.54,-472.48 243.12,-474.37 246.57,-480.46" style=""/>
</g>
<!-- amount1.mul -->
<g id="node29" class="node" pointer-events="visible" data-name="amount1.mul">

<ellipse fill="#edad56" stroke="#edad56" stroke-width="3" cx="272.09" cy="-374" rx="27" ry="18" style=""/>
<text text-anchor="middle" x="272.09" y="-369.8" font-family="Times,serif" font-size="14.00" style="">mul</text>
</g>
<!-- UniswapV2Pair.mint&#45;&gt;amount1.mul -->
<g id="edge20" class="edge" data-name="UniswapV2Pair.mint-&gt;amount1.mul">

<path fill="none" stroke="white" stroke-width="2" d="M83.9,-871.81C82.53,-805.88 85.6,-575.67 187.04,-429 199.97,-410.31 221.5,-396.4 239.54,-387.24" style=""/>
<polygon fill="white" stroke="white" stroke-width="2" points="241.1,-390.38 248.59,-382.89 238.06,-384.07 241.1,-390.38" style=""/>
</g>
<!-- UniswapV2Pair.burn -->
<g id="node9" class="node" pointer-events="visible" data-name="UniswapV2Pair.burn">

<ellipse fill="#ffbdb9" stroke="#ffbdb9" stroke-width="3" cx="83.52" cy="-998" rx="28.98" ry="18" style=""/>
<text text-anchor="middle" x="83.52" y="-993.8" font-family="Times,serif" font-size="14.00" style="">burn</text>
</g>
<!-- UniswapV2Pair.burn&#45;&gt;UniswapV2Pair.getReserves -->
<g id="edge23" class="edge" data-name="UniswapV2Pair.burn-&gt;UniswapV2Pair.getReserves">

<path fill="none" stroke="#1bc6a6" stroke-width="2" d="M112.05,-1000.95C136.93,-1003.62 174.5,-1007.65 206.88,-1011.12" style=""/>
<polygon fill="#1bc6a6" stroke="#1bc6a6" stroke-width="2" points="206.87,-1014.64 217.19,-1012.22 207.62,-1007.68 206.87,-1014.64" style=""/>
</g>
<!-- UniswapV2Pair.burn&#45;&gt;UniswapV2Pair._safeTransfer -->
<g id="edge30" class="edge" data-name="UniswapV2Pair.burn-&gt;UniswapV2Pair._safeTransfer">

<path fill="none" stroke="#1bc6a6" stroke-width="2" d="M112.12,-995.18C125.58,-998.11 140.99,-1004.76 151.04,-1016 190.44,-1060.05 146.03,-1101.45 187.04,-1144 195.77,-1153.05 207.54,-1159.08 219.5,-1163.38" style=""/>
<polygon fill="#1bc6a6" stroke="#1bc6a6" stroke-width="2" points="218.49,-1166.73 229.08,-1166.49 220.65,-1160.07 218.49,-1166.73" style=""/>
</g>
<!-- UniswapV2Pair.burn&#45;&gt;UniswapV2Pair._safeTransfer -->
<g id="edge31" class="edge" data-name="UniswapV2Pair.burn-&gt;UniswapV2Pair._safeTransfer">

<path fill="none" stroke="#1bc6a6" stroke-width="2" d="M106.27,-1009.23C120.87,-1014.24 139.49,-1021.09 151.04,-1034 190.44,-1078.05 146.03,-1119.45 187.04,-1162 190.74,-1165.83 194.98,-1169.12 199.54,-1171.92" style=""/>
<polygon fill="#1bc6a6" stroke="#1bc6a6" stroke-width="2" points="198.2,-1175.17 208.68,-1176.72 201.45,-1168.97 198.2,-1175.17" style=""/>
</g>
<!-- UniswapV2Pair.burn&#45;&gt;UniswapV2Pair._update -->
<g id="edge34" class="edge" data-name="UniswapV2Pair.burn-&gt;UniswapV2Pair._update">

<path fill="none" stroke="#1bc6a6" stroke-width="2" d="M108.53,-1006.93C121.32,-1011.89 137.21,-1018.38 151.04,-1025 167.55,-1032.9 170.25,-1037.72 187.04,-1045 199.7,-1050.49 213.86,-1055.46 226.88,-1059.59" style=""/>
<polygon fill="#1bc6a6" stroke="#1bc6a6" stroke-width="2" points="226,-1062.98 236.59,-1062.58 228.06,-1056.29 226,-1062.98" style=""/>
</g>
<!-- UniswapV2Pair.burn&#45;&gt;UniswapV2Pair._mintFee -->
<g id="edge26" class="edge" data-name="UniswapV2Pair.burn-&gt;UniswapV2Pair._mintFee">

<path fill="none" stroke="#1bc6a6" stroke-width="2" d="M109.6,-990.31C122.54,-985.74 138.25,-979.22 151.04,-971 169.56,-959.1 169.3,-950.03 187.04,-937 201.33,-926.51 218.19,-916.65 233.05,-908.7" style=""/>
<polygon fill="#1bc6a6" stroke="#1bc6a6" stroke-width="2" points="234.77,-911.75 242,-904 231.52,-905.55 234.77,-911.75" style=""/>
</g>
<!-- UniswapV2Pair.burn&#45;&gt;UniswapV2Pair.IERC20 -->
<g id="edge24" class="edge" data-name="UniswapV2Pair.burn-&gt;UniswapV2Pair.IERC20">

<path fill="none" stroke="#1bc6a6" stroke-width="2" d="M95.5,-981.55C109.87,-975.96 135.11,-983.1 151.04,-998 177.76,-1022.98 159.41,-1048.04 187.04,-1072 205.38,-1087.9 233.2,-1094.46 251.75,-1103.55" style=""/>
<polygon fill="#1bc6a6" stroke="#1bc6a6" stroke-width="2" points="250.09,-1106.63 260.5,-1108.59 253.58,-1100.57 250.09,-1106.63" style=""/>
</g>
<!-- UniswapV2Pair.burn&#45;&gt;UniswapV2Pair.IERC20 -->
<g id="edge25" class="edge" data-name="UniswapV2Pair.burn-&gt;UniswapV2Pair.IERC20">

<path fill="none" stroke="#1bc6a6" stroke-width="2" d="M112.31,-996.2C125.33,-999.43 140.3,-1005.96 151.04,-1016 177.76,-1040.98 159.41,-1066.04 187.04,-1090 198.99,-1100.36 214.96,-1106.76 229.77,-1111.29" style=""/>
<polygon fill="#1bc6a6" stroke="#1bc6a6" stroke-width="2" points="229.2,-1114.77 239.77,-1114.15 231.12,-1108.04 229.2,-1114.77" style=""/>
</g>
<!-- UniswapV2Pair.burn&#45;&gt;UniswapV2Pair.IERC20 -->
<g id="edge32" class="edge" data-name="UniswapV2Pair.burn-&gt;UniswapV2Pair.IERC20">

<path fill="none" stroke="#1bc6a6" stroke-width="2" d="M105.27,-1009.79C119.6,-1015.13 138.3,-1022.08 151.04,-1034 177.76,-1058.98 159.41,-1084.04 187.04,-1108 196.27,-1116 207.89,-1121.64 219.53,-1125.33" style=""/>
<polygon fill="#1bc6a6" stroke="#1bc6a6" stroke-width="2" points="218.69,-1128.73 229.26,-1127.99 220.53,-1121.98 218.69,-1128.73" style=""/>
</g>
<!-- UniswapV2Pair.burn&#45;&gt;UniswapV2Pair.IERC20 -->
<g id="edge33" class="edge" data-name="UniswapV2Pair.burn-&gt;UniswapV2Pair.IERC20">

<path fill="none" stroke="#1bc6a6" stroke-width="2" d="M92.06,-1015.2C105.48,-1028.79 133.74,-1035.83 151.04,-1052 177.76,-1076.98 159.41,-1102.04 187.04,-1126 204.17,-1140.86 229.58,-1147.56 247.97,-1145.36" style=""/>
<polygon fill="#1bc6a6" stroke="#1bc6a6" stroke-width="2" points="248.94,-1148.72 257.87,-1143.03 247.33,-1141.91 248.94,-1148.72" style=""/>
</g>
<!-- UniswapV2Pair._burn -->
<g id="node16" class="node" pointer-events="visible" data-name="UniswapV2Pair._burn">

<ellipse fill="#edad56" stroke="#edad56" stroke-width="3" cx="272.09" cy="-1234" rx="33.63" ry="18" style=""/>
<text text-anchor="middle" x="272.09" y="-1229.8" font-family="Times,serif" font-size="14.00" style="">_burn</text>
</g>
<!-- UniswapV2Pair.burn&#45;&gt;UniswapV2Pair._burn -->
<g id="edge29" class="edge" data-name="UniswapV2Pair.burn-&gt;UniswapV2Pair._burn">

<path fill="none" stroke="#1bc6a6" stroke-width="2" d="M111.49,-1002.63C125.29,-1006.38 141.2,-1013.08 151.04,-1025 203.54,-1088.58 132.2,-1145.42 187.04,-1207 197.74,-1219.02 213.81,-1225.72 229.03,-1229.44" style=""/>
<polygon fill="#1bc6a6" stroke="#1bc6a6" stroke-width="2" points="228.35,-1232.88 238.85,-1231.49 229.77,-1226.02 228.35,-1232.88" style=""/>
</g>
<!-- liquidity.mul -->
<g id="node30" class="node" pointer-events="visible" data-name="liquidity.mul">

<ellipse fill="#edad56" stroke="#edad56" stroke-width="3" cx="272.09" cy="-289" rx="27" ry="18" style=""/>
<text text-anchor="middle" x="272.09" y="-284.8" font-family="Times,serif" font-size="14.00" style="">mul</text>
</g>
<!-- UniswapV2Pair.burn&#45;&gt;liquidity.mul -->
<g id="edge27" class="edge" data-name="UniswapV2Pair.burn-&gt;liquidity.mul">

<path fill="none" stroke="white" stroke-width="2" d="M107.19,-987.5C122.21,-982.84 140.96,-976.09 151.04,-962 232.28,-848.52 117.17,-455.81 187.04,-335 197.8,-316.4 217.66,-302.97 235.38,-295.04" style=""/>
<polygon fill="white" stroke="white" stroke-width="2" points="236.96,-298.18 244.93,-291.2 234.35,-291.68 236.96,-298.18" style=""/>
</g>
<!-- UniswapV2Pair.burn&#45;&gt;liquidity.mul -->
<g id="edge28" class="edge" data-name="UniswapV2Pair.burn-&gt;liquidity.mul">

<path fill="none" stroke="white" stroke-width="2" d="M111.83,-1001.93C125.9,-999.4 141.97,-992.67 151.04,-980 232.28,-866.52 117.17,-473.81 187.04,-353 199.5,-331.47 224.17,-316.85 243.57,-306.58" style=""/>
<polygon fill="white" stroke="white" stroke-width="2" points="245.35,-309.6 252.6,-301.87 242.12,-303.39 245.35,-309.6" style=""/>
</g>
<!-- UniswapV2Pair.swap -->
<g id="node10" class="node" pointer-events="visible" data-name="UniswapV2Pair.swap">

<ellipse fill="#ffbdb9" stroke="#ffbdb9" stroke-width="3" cx="83.52" cy="-944" rx="30.76" ry="18" style=""/>
<text text-anchor="middle" x="83.52" y="-939.8" font-family="Times,serif" font-size="14.00" style="">swap</text>
</g>
<!-- UniswapV2Pair.swap&#45;&gt;UniswapV2Pair.getReserves -->
<g id="edge35" class="edge" data-name="UniswapV2Pair.swap-&gt;UniswapV2Pair.getReserves">

<path fill="none" stroke="#1bc6a6" stroke-width="2" d="M110.11,-953.54C122.61,-958.42 137.78,-964.65 151.04,-971 167.55,-978.9 170.25,-983.72 187.04,-991 197.16,-995.39 208.23,-999.44 218.92,-1003" style=""/>
<polygon fill="#1bc6a6" stroke="#1bc6a6" stroke-width="2" points="218,-1006.38 228.59,-1006.13 220.16,-999.72 218,-1006.38" style=""/>
</g>
<!-- UniswapV2Pair.swap&#45;&gt;UniswapV2Pair._safeTransfer -->
<g id="edge36" class="edge" data-name="UniswapV2Pair.swap-&gt;UniswapV2Pair._safeTransfer">

<path fill="none" stroke="#1bc6a6" stroke-width="2" d="M114.19,-941.23C127.31,-944.26 141.84,-950.85 151.04,-962 203.54,-1025.58 132.2,-1082.42 187.04,-1144 195.24,-1153.21 206.59,-1159.3 218.3,-1163.59" style=""/>
<polygon fill="#1bc6a6" stroke="#1bc6a6" stroke-width="2" points="217.57,-1167.04 228.16,-1166.81 219.74,-1160.38 217.57,-1167.04" style=""/>
</g>
<!-- UniswapV2Pair.swap&#45;&gt;UniswapV2Pair._safeTransfer -->
<g id="edge37" class="edge" data-name="UniswapV2Pair.swap-&gt;UniswapV2Pair._safeTransfer">

<path fill="none" stroke="#1bc6a6" stroke-width="2" d="M107.88,-955.38C122.42,-960.23 140.33,-967.03 151.04,-980 203.54,-1043.58 132.2,-1100.42 187.04,-1162 190.74,-1166.15 195.07,-1169.66 199.79,-1172.62" style=""/>
<polygon fill="#1bc6a6" stroke="#1bc6a6" stroke-width="2" points="198.17,-1175.72 208.64,-1177.34 201.46,-1169.54 198.17,-1175.72" style=""/>
</g>
<!-- UniswapV2Pair.swap&#45;&gt;UniswapV2Pair._update -->
<g id="edge46" class="edge" data-name="UniswapV2Pair.swap-&gt;UniswapV2Pair._update">

<path fill="none" stroke="#1bc6a6" stroke-width="2" d="M112.64,-950.43C125.58,-954.55 140.39,-961.04 151.04,-971 177.76,-995.98 159.41,-1021.04 187.04,-1045 197,-1053.64 209.75,-1059.52 222.3,-1063.52" style=""/>
<polygon fill="#1bc6a6" stroke="#1bc6a6" stroke-width="2" points="221.68,-1066.98 232.26,-1066.34 223.59,-1060.25 221.68,-1066.98" style=""/>
</g>
<!-- UniswapV2Pair.swap&#45;&gt;UniswapV2Pair.IERC20 -->
<g id="edge39" class="edge" data-name="UniswapV2Pair.swap-&gt;UniswapV2Pair.IERC20">

<path fill="none" stroke="#1bc6a6" stroke-width="2" d="M114.13,-941.64C127.09,-944.78 141.49,-951.32 151.04,-962 190.44,-1006.05 146.03,-1047.45 187.04,-1090 197.84,-1101.21 213.3,-1107.77 228.02,-1112.17" style=""/>
<polygon fill="#1bc6a6" stroke="#1bc6a6" stroke-width="2" points="227.46,-1115.65 238.03,-1114.91 229.31,-1108.9 227.46,-1115.65" style=""/>
</g>
<!-- UniswapV2Pair.swap&#45;&gt;UniswapV2Pair.IERC20 -->
<g id="edge40" class="edge" data-name="UniswapV2Pair.swap-&gt;UniswapV2Pair.IERC20">

<path fill="none" stroke="#1bc6a6" stroke-width="2" d="M107.22,-955.56C121.67,-960.53 139.74,-967.37 151.04,-980 190.44,-1024.05 146.03,-1065.45 187.04,-1108 195.94,-1117.23 207.99,-1123.31 220.19,-1127" style=""/>
<polygon fill="#1bc6a6" stroke="#1bc6a6" stroke-width="2" points="219.4,-1130.41 229.95,-1129.46 221.11,-1123.62 219.4,-1130.41" style=""/>
</g>
<!-- UniswapV2Pair.IUniswapV2Callee -->
<g id="node17" class="node" pointer-events="visible" data-name="UniswapV2Pair.IUniswapV2Callee">

<ellipse fill="#edad56" stroke="#edad56" stroke-width="3" cx="272.09" cy="-964" rx="85.09" ry="18" style=""/>
<text text-anchor="middle" x="272.09" y="-959.8" font-family="Times,serif" font-size="14.00" style="">IUniswapV2Callee</text>
</g>
<!-- UniswapV2Pair.swap&#45;&gt;UniswapV2Pair.IUniswapV2Callee -->
<g id="edge38" class="edge" data-name="UniswapV2Pair.swap-&gt;UniswapV2Pair.IUniswapV2Callee">

<path fill="none" stroke="#1bc6a6" stroke-width="2" d="M114.08,-947.17C133.49,-949.25 159.96,-952.09 185.62,-954.84" style=""/>
<polygon fill="#1bc6a6" stroke="#1bc6a6" stroke-width="2" points="185.47,-958.34 195.78,-955.93 186.21,-951.38 185.47,-958.34" style=""/>
</g>
<!-- balance0.mul -->
<g id="node25" class="node" pointer-events="visible" data-name="balance0.mul">

<ellipse fill="#edad56" stroke="#edad56" stroke-width="3" cx="272.09" cy="-737" rx="27" ry="18" style=""/>
<text text-anchor="middle" x="272.09" y="-732.8" font-family="Times,serif" font-size="14.00" style="">mul</text>
</g>
<!-- UniswapV2Pair.swap&#45;&gt;balance0.mul -->
<g id="edge41" class="edge" data-name="UniswapV2Pair.swap-&gt;balance0.mul">

<path fill="none" stroke="white" stroke-width="2" d="M112.16,-937.04C125,-932.8 139.86,-926.36 151.04,-917 174.03,-897.78 170.59,-885.04 187.04,-860 209.68,-825.54 236.72,-786.3 253.89,-761.6" style=""/>
<polygon fill="white" stroke="white" stroke-width="2" points="256.91,-763.39 259.75,-753.19 251.16,-759.39 256.91,-763.39" style=""/>
</g>
<!-- balance1.mul -->
<g id="node27" class="node" pointer-events="visible" data-name="balance1.mul">

<ellipse fill="#edad56" stroke="#edad56" stroke-width="3" cx="272.09" cy="-598" rx="27" ry="18" style=""/>
<text text-anchor="middle" x="272.09" y="-593.8" font-family="Times,serif" font-size="14.00" style="">mul</text>
</g>
<!-- UniswapV2Pair.swap&#45;&gt;balance1.mul -->
<g id="edge43" class="edge" data-name="UniswapV2Pair.swap-&gt;balance1.mul">

<path fill="none" stroke="white" stroke-width="2" d="M113.47,-939.14C126.93,-935.37 141.94,-928.71 151.04,-917 223.68,-823.48 123.8,-753.12 187.04,-653 199.18,-633.79 220.73,-619.89 238.97,-610.87" style=""/>
<polygon fill="white" stroke="white" stroke-width="2" points="240.55,-613.99 248.14,-606.59 237.6,-607.65 240.55,-613.99" style=""/>
</g>
<!-- amount0In.mul -->
<g id="node31" class="node" pointer-events="visible" data-name="amount0In.mul">

<ellipse fill="#edad56" stroke="#edad56" stroke-width="3" cx="272.09" cy="-204" rx="27" ry="18" style=""/>
<text text-anchor="middle" x="272.09" y="-199.8" font-family="Times,serif" font-size="14.00" style="">mul</text>
</g>
<!-- UniswapV2Pair.swap&#45;&gt;amount0In.mul -->
<g id="edge42" class="edge" data-name="UniswapV2Pair.swap-&gt;amount0In.mul">

<path fill="none" stroke="white" stroke-width="2" d="M113.54,-939.54C127.19,-935.87 142.35,-929.17 151.04,-917 236.12,-797.81 113.9,-385.87 187.04,-259 198.39,-239.32 219.96,-225.42 238.4,-216.52" style=""/>
<polygon fill="white" stroke="white" stroke-width="2" points="240.02,-219.63 247.69,-212.32 237.14,-213.25 240.02,-219.63" style=""/>
</g>
<!-- amount1In.mul -->
<g id="node32" class="node" pointer-events="visible" data-name="amount1In.mul">

<ellipse fill="#edad56" stroke="#edad56" stroke-width="3" cx="272.09" cy="-119" rx="27" ry="18" style=""/>
<text text-anchor="middle" x="272.09" y="-114.8" font-family="Times,serif" font-size="14.00" style="">mul</text>
</g>
<!-- UniswapV2Pair.swap&#45;&gt;amount1In.mul -->
<g id="edge44" class="edge" data-name="UniswapV2Pair.swap-&gt;amount1In.mul">

<path fill="none" stroke="white" stroke-width="2" d="M113.57,-939.57C127.23,-935.9 142.39,-929.2 151.04,-917 246.66,-782.16 104.92,-317.47 187.04,-174 198.33,-154.28 219.9,-140.39 238.36,-131.5" style=""/>
<polygon fill="white" stroke="white" stroke-width="2" points="239.98,-134.6 247.66,-127.3 237.1,-128.22 239.98,-134.6" style=""/>
</g>
<!-- balance0Adjusted.mul -->
<g id="node33" class="node" pointer-events="visible" data-name="balance0Adjusted.mul">

<ellipse fill="#edad56" stroke="#edad56" stroke-width="3" cx="272.09" cy="-34" rx="27" ry="18" style=""/>
<text text-anchor="middle" x="272.09" y="-29.8" font-family="Times,serif" font-size="14.00" style="">mul</text>
</g>
<!-- UniswapV2Pair.swap&#45;&gt;balance0Adjusted.mul -->
<g id="edge45" class="edge" data-name="UniswapV2Pair.swap-&gt;balance0Adjusted.mul">

<path fill="none" stroke="white" stroke-width="2" d="M113.6,-939.58C127.27,-935.92 142.42,-929.22 151.04,-917 204.12,-841.75 141.49,-169.03 187.04,-89 198.28,-69.25 219.85,-55.36 238.32,-46.48" style=""/>
<polygon fill="white" stroke="white" stroke-width="2" points="239.95,-49.58 247.63,-42.28 237.07,-43.2 239.95,-49.58" style=""/>
</g>
<!-- UniswapV2Pair.skim -->
<g id="node11" class="node" pointer-events="visible" data-name="UniswapV2Pair.skim">

<ellipse fill="#ffbdb9" stroke="#ffbdb9" stroke-width="3" cx="83.52" cy="-1106" rx="29.63" ry="18" style=""/>
<text text-anchor="middle" x="83.52" y="-1101.8" font-family="Times,serif" font-size="14.00" style="">skim</text>
</g>
<!-- UniswapV2Pair.skim&#45;&gt;UniswapV2Pair._safeTransfer -->
<g id="edge47" class="edge" data-name="UniswapV2Pair.skim-&gt;UniswapV2Pair._safeTransfer">

<path fill="none" stroke="#1bc6a6" stroke-width="2" d="M113.34,-1108.49C125.16,-1112.48 138.9,-1118.19 151.04,-1124 167.55,-1131.9 170.25,-1136.72 187.04,-1144 201.32,-1150.19 217.5,-1155.72 231.82,-1160.7" style=""/>
<polygon fill="#1bc6a6" stroke="#1bc6a6" stroke-width="2" points="230.8,-1164.05 241.39,-1164.06 233.12,-1157.44 230.8,-1164.05" style=""/>
</g>
<!-- UniswapV2Pair.skim&#45;&gt;UniswapV2Pair._safeTransfer -->
<g id="edge49" class="edge" data-name="UniswapV2Pair.skim-&gt;UniswapV2Pair._safeTransfer">

<path fill="none" stroke="#1bc6a6" stroke-width="2" d="M102.56,-1120.07C116.09,-1126.78 134.96,-1134.31 151.04,-1142 167.55,-1149.9 170.25,-1154.72 187.04,-1162 192.54,-1164.38 198.31,-1166.67 204.16,-1168.79" style=""/>
<polygon fill="#1bc6a6" stroke="#1bc6a6" stroke-width="2" points="203.42,-1172.24 214.01,-1172.22 205.72,-1165.63 203.42,-1172.24" style=""/>
</g>
<!-- UniswapV2Pair.skim&#45;&gt;UniswapV2Pair.IERC20 -->
<g id="edge48" class="edge" data-name="UniswapV2Pair.skim-&gt;UniswapV2Pair.IERC20">

<path fill="none" stroke="#1bc6a6" stroke-width="2" d="M113.26,-1104.05C143.13,-1105.3 190.3,-1110.07 225.3,-1115.19" style=""/>
<polygon fill="#1bc6a6" stroke="#1bc6a6" stroke-width="2" points="224.87,-1118.66 235.28,-1116.71 225.92,-1111.74 224.87,-1118.66" style=""/>
</g>
<!-- UniswapV2Pair.skim&#45;&gt;UniswapV2Pair.IERC20 -->
<g id="edge50" class="edge" data-name="UniswapV2Pair.skim-&gt;UniswapV2Pair.IERC20">

<path fill="none" stroke="#1bc6a6" stroke-width="2" d="M110.86,-1113.7C138.92,-1118.68 184.08,-1123.94 219.31,-1126.57" style=""/>
<polygon fill="#1bc6a6" stroke="#1bc6a6" stroke-width="2" points="219.21,-1130.07 229.43,-1127.27 219.69,-1123.08 219.21,-1130.07" style=""/>
</g>
<!-- UniswapV2Pair.sync -->
<g id="node12" class="node" pointer-events="visible" data-name="UniswapV2Pair.sync">

<ellipse fill="#ffbdb9" stroke="#ffbdb9" stroke-width="3" cx="83.52" cy="-1052" rx="28.97" ry="18" style=""/>
<text text-anchor="middle" x="83.52" y="-1047.8" font-family="Times,serif" font-size="14.00" style="">sync</text>
</g>
<!-- UniswapV2Pair.sync&#45;&gt;UniswapV2Pair._update -->
<g id="edge51" class="edge" data-name="UniswapV2Pair.sync-&gt;UniswapV2Pair._update">

<path fill="none" stroke="#1bc6a6" stroke-width="2" d="M112.05,-1054.95C140.74,-1058.03 186.32,-1062.91 221.34,-1066.67" style=""/>
<polygon fill="#1bc6a6" stroke="#1bc6a6" stroke-width="2" points="221.06,-1070.16 231.37,-1067.74 221.8,-1063.2 221.06,-1070.16" style=""/>
</g>
<!-- UniswapV2Pair.sync&#45;&gt;UniswapV2Pair.IERC20 -->
<g id="edge52" class="edge" data-name="UniswapV2Pair.sync-&gt;UniswapV2Pair.IERC20">

<path fill="none" stroke="#1bc6a6" stroke-width="2" d="M112.36,-1054.16C124.4,-1058.16 138.56,-1064.03 151.04,-1070 167.55,-1077.9 170.25,-1082.72 187.04,-1090 202.84,-1096.85 220.97,-1102.89 236.33,-1108.27" style=""/>
<polygon fill="#1bc6a6" stroke="#1bc6a6" stroke-width="2" points="235.38,-1111.65 245.98,-1111.71 237.74,-1105.05 235.38,-1111.65" style=""/>
</g>
<!-- UniswapV2Pair.sync&#45;&gt;UniswapV2Pair.IERC20 -->
<g id="edge53" class="edge" data-name="UniswapV2Pair.sync-&gt;UniswapV2Pair.IERC20">

<path fill="none" stroke="#1bc6a6" stroke-width="2" d="M102,-1065.79C115.56,-1072.57 134.74,-1080.2 151.04,-1088 167.55,-1095.9 170.25,-1100.72 187.04,-1108 197.59,-1112.57 209.18,-1116.78 220.28,-1120.23" style=""/>
<polygon fill="#1bc6a6" stroke="#1bc6a6" stroke-width="2" points="219.3,-1123.59 229.88,-1123.04 221.27,-1116.87 219.3,-1123.59" style=""/>
</g>
<!-- key -->
<g id="node34" class="node" pointer-events="visible" data-name="key">

<polygon fill="#edad56" stroke="transparent" stroke-width="3" points="148.52,-1431 18.52,-1431 18.52,-1343 148.52,-1343 148.52,-1431" style=""/>
<text text-anchor="start" x="68.16" y="-1412.4" font-family="Times,serif" font-size="14.00" style="">Internal Call</text>
<text text-anchor="start" x="64.26" y="-1392.4" font-family="Times,serif" font-size="14.00" style="">External Call</text>
<text text-anchor="start" x="41.73" y="-1372.4" font-family="Times,serif" font-size="14.00" style="">Defined Contract</text>
<text text-anchor="start" x="28.12" y="-1352.4" font-family="Times,serif" font-size="14.00" style="">Undefined Contract</text>
</g>
<!-- key2 -->
<g id="node35" class="node" pointer-events="visible" data-name="key2">

<polygon fill="#edad56" stroke="transparent" stroke-width="3" points="299.09,-1431 245.09,-1431 245.09,-1343 299.09,-1343 299.09,-1431" style=""/>
<text text-anchor="start" x="259.85" y="-1412.4" font-family="Times,serif" font-size="14.00" style="">   </text>
<text text-anchor="start" x="259.85" y="-1392.4" font-family="Times,serif" font-size="14.00" style="">   </text>
<polygon fill="#445773" stroke="transparent" points="258.09,-1367 258.09,-1387 286.09,-1387 286.09,-1367 258.09,-1367" style=""/>
<text text-anchor="start" x="259.85" y="-1372.4" font-family="Times,serif" font-size="14.00" style="">   </text>
<polygon fill="none" stroke="#e8726d" points="260.09,-1349 260.09,-1365 284.09,-1365 284.09,-1349 260.09,-1349" style=""/>
</g>
<!-- key&#45;&gt;key2 -->
<g id="edge54" class="edge" data-name="key-&gt;key2">

<path fill="none" stroke="#1bc6a6" stroke-width="2" d="M141.52,-1417C189.37,-1417 203.79,-1417 247.07,-1417" style=""/>
<polygon fill="#1bc6a6" stroke="#1bc6a6" stroke-width="2" points="247.09,-1420.5 257.09,-1417 247.09,-1413.5 247.09,-1420.5" style=""/>
</g>
<!-- key&#45;&gt;key2 -->
<g id="edge55" class="edge" data-name="key-&gt;key2">

<path fill="none" stroke="white" stroke-width="2" d="M141.52,-1397C189.37,-1397 203.79,-1397 247.07,-1397" style=""/>
<polygon fill="white" stroke="white" stroke-width="2" points="247.09,-1400.5 257.09,-1397 247.09,-1393.5 247.09,-1400.5" style=""/>
</g>
</g>
</svg>